{"title":"What.Not.To.Wear s08e14 Denise","uid":7179929,"size":545257472,"categoryP":"video","categoryS":"tv_shows","magnet":"?xt=urn:btih:caa11da6d3271cddfc34de92b6a4e1e102b13a6a&amp;dn=What.Not.To.Wear+s08e14+Denise&amp;tr=udp%3A%2F%2Ftracker.openbittorrent.com%3A80&amp;tr=udp%3A%2F%2Fopen.demonii.com%3A1337&amp;tr=udp%3A%2F%2Ftracker.coppersurfer.tk%3A6969&amp;tr=udp%3A%2F%2Fexodus.desync.com%3A6969","seeders":2,"leechers":0,"uploader":"April22","files":-1,"time":1334231932,"description":"WHAT NOT TO WEAR\n\nTwo fashion stylists and a team of hair and makeup advisors help revamp the look of individuals who have been nominated by their friends for makeovers due to their lamentable appearance, using a $5,000 budget.\n\nSEASON 8 EPISODE 14 - Denise\n\nDenise is a flight attendant whose style is a blinding display of bling - so much so that she's transformed herself into a piece of walking performance art. But where does the Technicolor costume party end and the real Denise begin? Can a week-long layover convince Denise that the glitz and glam is smothering her inner sparkle and making her look like Betty Davis in Whatever Happened to Baby Jane?\n\nMediaInfo:\n\nGeneral\nComplete name                    : C:MOVIESs08e14 Denise.avi\nFormat                           : AVI\nFormat/Info                      : Audio Video Interleave\nFile size                        : 520 MiB\nDuration                         : 42mn 38s\nOverall bit rate                 : 1 705 Kbps\nWriting application              : Lavf52.39.0\nWriting library                  : VirtualDub build 32842/release\n\nVideo\nID                               : 0\nFormat                           : MPEG-4 Visual\nFormat profile                   : Simple@L1\nFormat settings, BVOP            : No\nFormat settings, QPel            : No\nFormat settings, GMC             : No warppoints\nFormat settings, Matrix          : Default (H.263)\nCodec ID                         : DX50\nCodec ID/Hint                    : DivX 5\nDuration                         : 42mn 38s\nBit rate                         : 1 500 Kbps\nWidth                            : 720 pixels\nHeight                           : 448 pixels\nDisplay aspect ratio             : 1.607\nFrame rate                       : 25.000 fps\nColor space                      : YUV\nChroma subsampling               : 4:2:0\nBit depth                        : 8 bits\nScan type                        : Progressive\nCompression mode                 : Lossy\nBits/(Pixel*Frame)               : 0.186\nStream size                      : 457 MiB (88%)\nWriting library                  : Lavc52.36.0\n\nAudio\nID                               : 1\nFormat                           : MPEG Audio\nFormat version                   : Version 1\nFormat profile                   : Layer 3\nMode                             : Joint stereo\nMode extension                   : MS Stereo\nCodec ID                         : 55\nCodec ID/Hint                    : MP3\nDuration                         : 42mn 38s\nBit rate mode                    : Constant\nBit rate                         : 192 Kbps\nChannel(s)                       : 2 channels\nSampling rate                    : 48.0 KHz\nCompression mode                 : Lossy\nStream size                      : 58.6 MiB (11%)\nAlignment                        : Aligned on interleaves\nInterleave, duration             : 24 ms (0.60 video frame)\nInterleave, preload duration     : 504 ms","torrent":{"xt":"urn:btih:caa11da6d3271cddfc34de92b6a4e1e102b13a6a","amp;dn":"What.Not.To.Wear+s08e14+Denise","amp;tr":["udp%3A%2F%2Ftracker.openbittorrent.com%3A80","udp%3A%2F%2Fopen.demonii.com%3A1337","udp%3A%2F%2Ftracker.coppersurfer.tk%3A6969","udp%3A%2F%2Fexodus.desync.com%3A6969"],"infoHash":"caa11da6d3271cddfc34de92b6a4e1e102b13a6a","infoHashBuffer":{"type":"Buffer","data":[202,161,29,166,211,39,28,221,252,52,222,146,182,164,225,225,2,177,58,106]},"announce":[],"urlList":[]}}